<svg width="52" height="34" viewBox="0 0 52 34" fill="none" xmlns="http://www.w3.org/2000/svg">
<path d="M16.904 0.0159998V0.975999C15.944 1.008 15.208 1.136 14.696 1.36C14.216 1.552 13.896 1.936 13.736 2.512C13.576 3.056 13.496 3.92 13.496 5.104V28.912C13.496 30.064 13.576 30.928 13.736 31.504C13.928 32.08 14.264 32.464 14.744 32.656C15.224 32.848 15.944 32.976 16.904 33.04V34C15.976 33.936 14.776 33.904 13.304 33.904C11.864 33.872 10.392 33.856 8.888 33.856C7.16 33.856 5.528 33.872 3.992 33.904C2.488 33.904 1.272 33.936 0.344 34V33.04C1.336 32.976 2.072 32.848 2.552 32.656C3.032 32.464 3.352 32.08 3.512 31.504C3.672 30.928 3.752 30.064 3.752 28.912V5.104C3.752 3.92 3.672 3.056 3.512 2.512C3.352 1.936 3.016 1.552 2.504 1.36C2.024 1.136 1.304 1.008 0.344 0.975999V0.0159998C1.272 0.0479994 2.488 0.079999 3.992 0.111999C5.528 0.143998 7.16 0.159998 8.888 0.159998C10.392 0.159998 11.864 0.143998 13.304 0.111999C14.776 0.079999 15.976 0.0479994 16.904 0.0159998ZM19.6096 0.0159998C20.5376 0.0479994 21.7536 0.079999 23.2576 0.111999C24.7936 0.143998 26.3296 0.159998 27.8656 0.159998C29.4656 0.159998 31.0016 0.143998 32.4736 0.111999C33.9456 0.079999 34.9856 0.0639992 35.5936 0.0639992C39.9776 0.0639992 43.2416 0.767999 45.3856 2.176C47.5296 3.584 48.6016 5.392 48.6016 7.6C48.6016 8.72 48.2016 9.888 47.4016 11.104C46.6016 12.288 45.3856 13.344 43.7536 14.272C42.1216 15.168 40.0416 15.776 37.5136 16.096V16.192C40.8096 16.352 43.4496 16.864 45.4336 17.728C47.4176 18.592 48.8576 19.648 49.7536 20.896C50.6496 22.112 51.0976 23.376 51.0976 24.688C51.0976 26.832 50.5216 28.592 49.3696 29.968C48.2176 31.344 46.5536 32.368 44.3776 33.04C42.2336 33.68 39.6736 34 36.6976 34C35.9296 34 34.7936 33.984 33.2896 33.952C31.8176 33.888 30.0416 33.856 27.9616 33.856C26.3616 33.856 24.7936 33.872 23.2576 33.904C21.7536 33.904 20.5376 33.936 19.6096 34V33.04C20.6016 32.976 21.3376 32.848 21.8176 32.656C22.2976 32.464 22.6176 32.08 22.7776 31.504C22.9376 30.928 23.0176 30.064 23.0176 28.912V5.104C23.0176 3.92 22.9376 3.056 22.7776 2.512C22.6176 1.936 22.2816 1.552 21.7696 1.36C21.2896 1.136 20.5696 1.008 19.6096 0.975999V0.0159998ZM35.3536 0.975999C34.2656 0.975999 33.5616 1.248 33.2416 1.792C32.9216 2.336 32.7616 3.44 32.7616 5.104V28.912C32.7616 30.032 32.8416 30.88 33.0016 31.456C33.1616 32.032 33.4656 32.416 33.9136 32.608C34.3616 32.8 35.0176 32.896 35.8816 32.896C37.6736 32.896 38.9696 32.176 39.7696 30.736C40.6016 29.264 41.0176 27.184 41.0176 24.496C41.0176 22.032 40.4256 20.128 39.2416 18.784C38.0896 17.44 36.1536 16.768 33.4336 16.768H29.9296C29.9296 16.768 29.9296 16.64 29.9296 16.384C29.9296 16.096 29.9296 15.952 29.9296 15.952H34.0576C35.3056 15.952 36.2656 15.6 36.9376 14.896C37.6096 14.16 38.0736 13.2 38.3296 12.016C38.5856 10.8 38.7136 9.504 38.7136 8.128C38.7136 5.76 38.4576 3.984 37.9456 2.8C37.4336 1.584 36.5696 0.975999 35.3536 0.975999Z" fill="url(#paint0_linear_3_8)"/>
<defs>
<linearGradient id="paint0_linear_3_8" x1="53" y1="24.4999" x2="-2.25" y2="24.4999" gradientUnits="userSpaceOnUse">
<stop stop-color="#E47B7B"/>
<stop offset="1" stop-color="#9350D4" stop-opacity="0.99"/>
</linearGradient>
</defs>
</svg>
